<?xml version="1.0" encoding="UTF-8"?><svg xmlns="http://www.w3.org/2000/svg" viewBox="0 0 1101.26 1093.92"><defs><style>.uuid-2d19fb61-4edc-4237-b4ca-dba1fa880152{fill:#a0d9f7;mix-blend-mode:exclusion;}.uuid-4afd38b7-b801-4b51-b7f3-73034c116d93{fill:#5d78ad;}.uuid-06117e58-c941-43b0-86a7-9336b318949a{isolation:isolate;}.uuid-2d8eaa95-770f-46af-ba8a-e2b7e1d84c27{fill:#4a70a5;}.uuid-828137f7-6325-4101-aeab-5b3607def31c{fill:#3da2db;}</style></defs><g class="uuid-06117e58-c941-43b0-86a7-9336b318949a"><g id="uuid-5c5cfa5c-8204-4188-a75e-3f819e4655e0"><g><path class="uuid-4afd38b7-b801-4b51-b7f3-73034c116d93" d="M527.52,408.89v.07c0,6.49-1.36,12.72-3.92,18.35-3.73,8.24-9.99,15.22-18.23,19.97l-114.74,66.27-6.66,3.85-17.89,10.33-90.25,52.08c-13.85,7.99-30.39,7.98-44.26-.01-13.88-8.02-22.17-22.36-22.17-38.39V276.37c0-15.99,8.28-30.31,22.14-38.31,6.95-4.01,14.57-6.02,22.17-6.02s15.2,2,22.12,6l90.25,52.08,17.89,10.32,6.66,3.86,114.76,66.27c9.09,5.21,15.77,13.17,19.31,22.55,1.85,4.93,2.82,10.25,2.82,15.77Z"/><path class="uuid-828137f7-6325-4101-aeab-5b3607def31c" d="M891.86,176.84v.07c0,6.49-1.36,12.72-3.92,18.35-3.73,8.24-9.99,15.22-18.23,19.97l-114.74,66.27-6.66,3.85-17.89,10.33-90.25,52.08c-13.85,7.99-30.39,7.98-44.26-.01-13.88-8.02-22.17-22.36-22.17-38.39V44.33c0-15.99,8.28-30.31,22.14-38.31,6.95-4.01,14.57-6.02,22.17-6.02s15.2,2,22.12,6l90.25,52.08,17.89,10.32,6.66,3.86,114.76,66.27c9.09,5.21,15.77,13.17,19.31,22.55,1.85,4.93,2.82,10.25,2.82,15.77Z"/><path class="uuid-2d19fb61-4edc-4237-b4ca-dba1fa880152" d="M891.86,631.99v.07c0,6.49-1.36,12.72-3.92,18.35-3.73,8.24-9.99,15.22-18.23,19.97l-114.74,66.27-6.66,3.85-17.89,10.33-90.25,52.08c-13.85,7.99-30.39,7.98-44.26-.01-13.88-8.02-22.17-22.36-22.17-38.39V499.47c0-15.99,8.28-30.31,22.14-38.31,6.95-4.01,14.57-6.02,22.17-6.02s15.2,2,22.12,6l90.25,52.08,17.89,10.32,6.66,3.86,114.76,66.27c9.09,5.21,15.77,13.17,19.31,22.55,1.85,4.93,2.82,10.25,2.82,15.77Z"/><g><path class="uuid-2d8eaa95-770f-46af-ba8a-e2b7e1d84c27" d="M17.65,1093.5c-5.67,0-10.03-1.6-13.08-4.79-3.05-3.19-4.57-7.62-4.57-13.29v-118.04c0-5.67,1.63-10.1,4.89-13.29,3.26-3.19,7.8-4.79,13.61-4.79,5.1,0,9.11,.99,12.02,2.98,2.9,1.99,5.56,5.25,7.98,9.78l45.51,82.09h-7.23l45.51-82.09c2.55-4.54,5.28-7.8,8.19-9.78,2.9-1.98,6.77-2.98,11.59-2.98,5.81,0,10.24,1.6,13.29,4.79,3.05,3.19,4.57,7.62,4.57,13.29v118.04c0,5.67-1.49,10.1-4.47,13.29-2.98,3.19-7.37,4.79-13.19,4.79s-10.03-1.6-13.08-4.79c-3.05-3.19-4.57-7.62-4.57-13.29v-73.16h4.47l-34.45,59.55c-1.84,3.12-3.86,5.46-6.06,7.02-2.2,1.56-5.14,2.34-8.83,2.34s-6.49-.78-8.83-2.34c-2.34-1.56-4.43-3.9-6.27-7.02l-34.45-59.76h5.1v73.37c0,5.67-1.49,10.1-4.47,13.29-2.98,3.19-7.37,4.79-13.19,4.79Z"/><path class="uuid-2d8eaa95-770f-46af-ba8a-e2b7e1d84c27" d="M237.99,1093.92c-11.63,0-21.77-2.2-30.41-6.59-8.65-4.39-15.39-10.74-20.2-19.04-4.82-8.29-7.23-18.04-7.23-29.24,0-8.51,1.35-16.13,4.04-22.86,2.69-6.73,6.59-12.51,11.7-17.33,5.1-4.82,11.2-8.47,18.29-10.95,7.09-2.48,15.03-3.72,23.82-3.72,11.62,0,21.76,2.2,30.41,6.59,8.65,4.4,15.35,10.71,20.1,18.93,4.75,8.22,7.12,18.01,7.12,29.35,0,8.51-1.35,16.09-4.04,22.76-2.69,6.67-6.59,12.44-11.7,17.33-5.1,4.89-11.2,8.58-18.29,11.06-7.09,2.48-14.96,3.72-23.61,3.72Zm0-28.29c3.83,0,7.19-.88,10.1-2.66,2.9-1.77,5.21-4.64,6.91-8.61,1.7-3.97,2.55-9.07,2.55-15.31,0-9.5-1.84-16.34-5.53-20.52-3.69-4.18-8.37-6.27-14.04-6.27-3.83,0-7.23,.92-10.21,2.77-2.98,1.84-5.32,4.71-7.02,8.61-1.7,3.9-2.55,9.04-2.55,15.42,0,9.36,1.84,16.13,5.53,20.31,3.69,4.18,8.43,6.27,14.25,6.27Z"/><path class="uuid-2d8eaa95-770f-46af-ba8a-e2b7e1d84c27" d="M331.99,1093.5c-6.24,0-10.95-1.67-14.14-5-3.19-3.33-4.79-8.04-4.79-14.14v-70.61c0-6.09,1.6-10.81,4.79-14.14,3.19-3.33,7.76-5,13.72-5s10.31,1.67,13.51,5c3.19,3.33,4.79,8.05,4.79,14.14v10l-2.34-8.72c3.4-6.66,8.26-11.8,14.57-15.42,6.31-3.62,13.51-5.42,21.59-5.42s15.24,1.67,20.63,5c5.39,3.33,9.43,8.29,12.12,14.89,2.69,6.59,4.04,15.07,4.04,25.42v44.88c0,6.1-1.63,10.81-4.89,14.14-3.26,3.33-7.94,5-14.04,5s-10.78-1.67-14.04-5c-3.26-3.33-4.89-8.04-4.89-14.14v-43.39c0-6.24-1.1-10.74-3.3-13.5-2.2-2.76-5.42-4.15-9.68-4.15-5.67,0-10.21,1.81-13.61,5.42-3.4,3.62-5.1,8.47-5.1,14.57v41.05c0,12.76-6.31,19.14-18.93,19.14Z"/><path class="uuid-2d8eaa95-770f-46af-ba8a-e2b7e1d84c27" d="M460.88,969.72c-6.81,0-12.05-1.56-15.74-4.68-3.69-3.12-5.53-7.58-5.53-13.4s1.84-10.49,5.53-13.61c3.69-3.12,8.93-4.68,15.74-4.68s11.84,1.56,15.53,4.68c3.69,3.12,5.53,7.66,5.53,13.61s-1.84,10.28-5.53,13.4c-3.69,3.12-8.86,4.68-15.53,4.68Zm0,123.35c-6.24,0-10.95-1.73-14.14-5.21-3.19-3.47-4.79-8.54-4.79-15.21v-67.42c0-6.66,1.6-11.73,4.79-15.21,3.19-3.47,7.9-5.21,14.14-5.21s10.6,1.74,13.93,5.21c3.33,3.48,5,8.54,5,15.21v67.42c0,6.67-1.63,11.73-4.89,15.21-3.26,3.48-7.94,5.21-14.04,5.21Z"/><path class="uuid-2d8eaa95-770f-46af-ba8a-e2b7e1d84c27" d="M556.58,1093.92c-10.49,0-19.21-1.67-26.16-5-6.95-3.33-12.12-8.29-15.53-14.89-3.4-6.59-5.1-14.85-5.1-24.78v-34.67h-7.02c-4.54,0-8.12-1.2-10.74-3.62-2.62-2.41-3.93-5.81-3.93-10.21,0-4.68,1.31-8.19,3.93-10.53,2.62-2.34,6.2-3.51,10.74-3.51h7.02v-13.4c0-6.09,1.63-10.81,4.89-14.14,3.26-3.33,7.94-5,14.04-5s10.77,1.67,14.04,5c3.26,3.33,4.89,8.05,4.89,14.14v13.4h17.44c4.54,0,8.08,1.17,10.63,3.51,2.55,2.34,3.83,5.85,3.83,10.53,0,4.4-1.28,7.8-3.83,10.21-2.55,2.41-6.1,3.62-10.63,3.62h-17.44v33.39c0,5.25,1.2,9.11,3.62,11.59,2.41,2.48,6.31,3.72,11.7,3.72,2.13,0,4.11-.21,5.96-.64,1.84-.42,3.54-.71,5.1-.85,2.27,0,4.15,.74,5.64,2.23,1.49,1.49,2.23,4.86,2.23,10.1,0,4.25-.67,7.84-2.02,10.74-1.35,2.91-3.65,5-6.91,6.27-2.13,.85-4.86,1.52-8.19,2.02-3.33,.5-6.06,.74-8.19,.74Z"/><path class="uuid-2d8eaa95-770f-46af-ba8a-e2b7e1d84c27" d="M644.21,1093.92c-11.63,0-21.77-2.2-30.41-6.59-8.65-4.39-15.39-10.74-20.2-19.04-4.82-8.29-7.23-18.04-7.23-29.24,0-8.51,1.35-16.13,4.04-22.86,2.69-6.73,6.59-12.51,11.7-17.33,5.1-4.82,11.2-8.47,18.29-10.95,7.09-2.48,15.03-3.72,23.82-3.72,11.62,0,21.76,2.2,30.41,6.59,8.65,4.4,15.35,10.71,20.1,18.93,4.75,8.22,7.12,18.01,7.12,29.35,0,8.51-1.35,16.09-4.04,22.76-2.69,6.67-6.59,12.44-11.7,17.33-5.1,4.89-11.2,8.58-18.29,11.06-7.09,2.48-14.96,3.72-23.61,3.72Zm0-28.29c3.83,0,7.19-.88,10.1-2.66,2.9-1.77,5.21-4.64,6.91-8.61,1.7-3.97,2.55-9.07,2.55-15.31,0-9.5-1.84-16.34-5.53-20.52-3.69-4.18-8.37-6.27-14.04-6.27-3.83,0-7.23,.92-10.21,2.77-2.98,1.84-5.32,4.71-7.02,8.61-1.7,3.9-2.55,9.04-2.55,15.42,0,9.36,1.84,16.13,5.53,20.31,3.69,4.18,8.43,6.27,14.25,6.27Z"/><path class="uuid-2d8eaa95-770f-46af-ba8a-e2b7e1d84c27" d="M738.64,1093.5c-6.24,0-11.03-1.67-14.36-5-3.33-3.33-5-8.04-5-14.14v-70.61c0-6.09,1.6-10.81,4.79-14.14,3.19-3.33,7.76-5,13.72-5s10.31,1.67,13.51,5c3.19,3.33,4.79,8.05,4.79,14.14v8.72h-2.13c1.42-8.51,5.07-15.28,10.95-20.31,5.88-5.03,13.22-7.69,22.01-7.98,4.11-.14,7.19,.92,9.25,3.19,2.05,2.27,3.15,6.38,3.3,12.33,0,5.1-1.06,9.11-3.19,12.02-2.13,2.91-6.1,4.72-11.91,5.42l-5.1,.43c-7.37,.71-12.83,2.8-16.38,6.27-3.55,3.48-5.32,8.61-5.32,15.42v35.09c0,6.1-1.6,10.81-4.79,14.14-3.19,3.33-7.91,5-14.14,5Z"/><path class="uuid-2d8eaa95-770f-46af-ba8a-e2b7e1d84c27" d="M832.22,1093.5c-5.67,0-10.03-1.6-13.08-4.79-3.05-3.19-4.57-7.62-4.57-13.29v-118.04c0-5.67,1.63-10.1,4.89-13.29,3.26-3.19,7.8-4.79,13.61-4.79,5.1,0,9.11,.99,12.02,2.98,2.9,1.99,5.56,5.25,7.98,9.78l45.51,82.09h-7.23l45.51-82.09c2.55-4.54,5.28-7.8,8.19-9.78,2.9-1.98,6.77-2.98,11.59-2.98,5.81,0,10.24,1.6,13.29,4.79,3.05,3.19,4.57,7.62,4.57,13.29v118.04c0,5.67-1.49,10.1-4.47,13.29-2.98,3.19-7.37,4.79-13.19,4.79s-10.03-1.6-13.08-4.79c-3.05-3.19-4.57-7.62-4.57-13.29v-73.16h4.47l-34.45,59.55c-1.84,3.12-3.86,5.46-6.06,7.02-2.2,1.56-5.14,2.34-8.83,2.34s-6.49-.78-8.83-2.34c-2.34-1.56-4.43-3.9-6.27-7.02l-34.45-59.76h5.1v73.37c0,5.67-1.49,10.1-4.47,13.29-2.98,3.19-7.37,4.79-13.19,4.79Z"/><path class="uuid-2d8eaa95-770f-46af-ba8a-e2b7e1d84c27" d="M1056.59,1093.92c-12.76,0-23.79-2.27-33.07-6.81-9.29-4.54-16.41-10.92-21.37-19.14-4.96-8.22-7.44-17.87-7.44-28.92s2.37-20.27,7.12-28.5c4.75-8.22,11.27-14.67,19.57-19.35,8.29-4.68,17.76-7.02,28.39-7.02,7.8,0,14.89,1.28,21.27,3.83,6.38,2.55,11.8,6.2,16.27,10.95,4.47,4.75,7.9,10.46,10.32,17.12,2.41,6.67,3.62,14.18,3.62,22.54,0,2.69-.78,4.75-2.34,6.17-1.56,1.42-3.97,2.13-7.23,2.13h-65.29v-18.08h47l-3.19,2.76c0-5.24-.71-9.53-2.13-12.87-1.42-3.33-3.51-5.81-6.27-7.44-2.76-1.63-6.2-2.45-10.31-2.45-4.4,0-8.22,1.03-11.48,3.08-3.26,2.06-5.71,5.07-7.34,9.04-1.63,3.97-2.45,8.93-2.45,14.89v1.7c0,10.21,2.23,17.44,6.7,21.69,4.47,4.25,11.38,6.38,20.74,6.38,3.12,0,6.7-.35,10.74-1.06,4.04-.71,7.9-1.77,11.59-3.19,3.69-1.42,6.88-1.66,9.57-.74,2.69,.92,4.79,2.45,6.27,4.57,1.49,2.13,2.34,4.65,2.55,7.55,.21,2.91-.43,5.64-1.91,8.19-1.49,2.55-3.93,4.54-7.34,5.96-4.82,2.27-10.03,4.01-15.63,5.21-5.6,1.2-11.24,1.81-16.91,1.81Z"/></g></g></g></g></svg>