<?xml version="1.0" encoding="UTF-8"?><svg xmlns="http://www.w3.org/2000/svg" viewBox="0 0 682.47 808.89"><defs><style>.uuid-d36d718e-ee30-49ae-a58a-8ed882c37bd3{fill:#a0d9f7;mix-blend-mode:exclusion;}.uuid-c914bd29-c4a2-47f8-b575-848a0de2e9f5{fill:#5d78ad;}.uuid-ff434686-9f54-41e0-aad1-87e7aa3a5ba6{isolation:isolate;}.uuid-e9edaaa9-53c4-46df-a802-a95ce92c66d2{fill:#3da2db;}</style></defs><g class="uuid-ff434686-9f54-41e0-aad1-87e7aa3a5ba6"><g id="uuid-f82b910a-08e1-468d-8244-de22caf009c2"><g><path class="uuid-c914bd29-c4a2-47f8-b575-848a0de2e9f5" d="M318.12,408.89v.07c0,6.49-1.36,12.72-3.92,18.35-3.73,8.24-9.99,15.22-18.23,19.97l-114.74,66.27-6.66,3.85-17.89,10.33-90.25,52.08c-13.85,7.99-30.39,7.98-44.26-.01-13.88-8.02-22.17-22.36-22.17-38.39V276.37c0-15.99,8.28-30.31,22.14-38.31,6.95-4.01,14.57-6.02,22.17-6.02s15.2,2,22.12,6l90.25,52.08,17.89,10.32,6.66,3.86,114.76,66.27c9.09,5.21,15.77,13.17,19.31,22.55,1.85,4.93,2.82,10.25,2.82,15.77Z"/><path class="uuid-e9edaaa9-53c4-46df-a802-a95ce92c66d2" d="M682.47,176.84v.07c0,6.49-1.36,12.72-3.92,18.35-3.73,8.24-9.99,15.22-18.23,19.97l-114.74,66.27-6.66,3.85-17.89,10.33-90.25,52.08c-13.85,7.99-30.39,7.98-44.26-.01-13.88-8.02-22.17-22.36-22.17-38.39V44.33c0-15.99,8.28-30.31,22.14-38.31,6.95-4.01,14.57-6.02,22.17-6.02s15.2,2,22.12,6l90.25,52.08,17.89,10.32,6.66,3.86,114.76,66.27c9.09,5.21,15.77,13.17,19.31,22.55,1.85,4.93,2.82,10.25,2.82,15.77Z"/><path class="uuid-d36d718e-ee30-49ae-a58a-8ed882c37bd3" d="M682.47,631.99v.07c0,6.49-1.36,12.72-3.92,18.35-3.73,8.24-9.99,15.22-18.23,19.97l-114.74,66.27-6.66,3.85-17.89,10.33-90.25,52.08c-13.85,7.99-30.39,7.98-44.26-.01-13.88-8.02-22.17-22.36-22.17-38.39V499.47c0-15.99,8.28-30.31,22.14-38.31,6.95-4.01,14.57-6.02,22.17-6.02s15.2,2,22.12,6l90.25,52.08,17.89,10.32,6.66,3.86,114.76,66.27c9.09,5.21,15.77,13.17,19.31,22.55,1.85,4.93,2.82,10.25,2.82,15.77Z"/></g></g></g></svg>